# xmcd
#
# Track frame offsets: 
#        150
#        10969
#        27860
#        45812
#        63008
#        81110
#        90679
#        101328
#        115804
#        123395
#        135478
#        149164
#        164944
#        180563
#        193207
#        201820
#
# Disc length: 3236 seconds
#
# Revision: 0
# Processed by: cddbd v1.5.2PL0 Copyright (c) Steve Scherf et al.
# Submitted via: ExactAudioCopy v0.99pb5
#
DISCID=d90ca210
DTITLE=Геннадий Перевалов - Избранное, т.5
DYEAR=2000
DGENRE=Chanson
TTITLE0=Солнце как в пустыне
TTITLE1=Если листья по воде
TTITLE2=Встречный поезд
TTITLE3=Когда бушует радиация
TTITLE4=Озёра
TTITLE5=Родная речь
TTITLE6=Колодец
TTITLE7=Мне мама гитару подарила
TTITLE8=Он подошёл...
TTITLE9=Ты угасла, словно свечка
TTITLE10=Грешники
TTITLE11=Что-то случилось
TTITLE12=Здравствуй, девочка Валюшка
TTITLE13=Империя
TTITLE14=Отпускник
TTITLE15=Не забывай меня!
EXTD=
EXTT0=
EXTT1=
EXTT2=
EXTT3=
EXTT4=
EXTT5=
EXTT6=
EXTT7=
EXTT8=
EXTT9=
EXTT10=
EXTT11=
EXTT12=
EXTT13=
EXTT14=
EXTT15=
PLAYORDER=
